<?xml version="1.0" encoding="utf-8"?>
<!-- Generator: Adobe Illustrator 25.4.1, SVG Export Plug-In . SVG Version: 6.00 Build 0)  -->
<svg version="1.1" id="Layer_1" xmlns="http://www.w3.org/2000/svg" xmlns:xlink="http://www.w3.org/1999/xlink" x="0px" y="0px"
	 viewBox="0 0 64 63.8" style="enable-background:new 0 0 64 63.8;" xml:space="preserve">
<style type="text/css">
	.st0{fill:#FFFFFF;}
</style>
<g>
	<polygon class="st0" points="36.9,47.3 35.7,47.5 36.1,48.4 	"/>
	<path class="st0" d="M27.3,12.3c-2.4,0.5-4.7,1.6-6.6,3.2c0.1,0.1,0.1,0.2,0.1,0.3c0.3,1.8,0.1,3.6-0.5,5.3
		C23.2,18.6,25.6,15.6,27.3,12.3z"/>
	<polygon class="st0" points="28.3,47.5 27.1,47.3 27.9,48.4 	"/>
	<path class="st0" d="M11.6,27.1c-0.9,0.3-1.4,1.2-1.2,2l2.3,12.4c0.1,0.3,0.4,0.6,0.8,0.5c0.3-0.1,0.5-0.3,0.5-0.6V28.8
		c0-1-0.8-1.8-1.8-1.8C12,27,11.8,27,11.6,27.1z"/>
	<path class="st0" d="M26.1,36.4c1.2-0.7,1.9-2,1.9-3.4c0-0.4-0.1-0.7-0.2-1.1C27.6,32,27.3,32,27,32h-1.3c0.2,0.3,0.3,0.6,0.3,1
		c0,1.1-0.9,2-2,2s-2-0.9-2-2c0-0.4,0.1-0.7,0.3-1c-0.1,0-0.2,0-0.3,0s-0.2,0-0.3,0c-0.2,0-0.4-0.1-0.6-0.1
		c-0.2-0.1-0.5-0.1-0.7-0.2h-0.1c-0.3,0.8-0.4,1.8-0.1,2.6L26.1,36.4z"/>
	<path class="st0" d="M41.8,44.2l-2,2.4l-3,4.3c-0.2,0.3-0.5,0.4-0.8,0.4c0,0,0,0-0.1,0c-0.4,0-0.7-0.2-0.8-0.5l-1.5-3L32.1,48
		c-0.1,0-0.2,0-0.3,0l-1.4-0.2l-1.5,3c-0.2,0.3-0.5,0.5-0.8,0.5c0,0,0,0-0.1,0c-0.3,0-0.6-0.2-0.8-0.4l-3-4.4L22.3,44
		c-0.2-0.2-0.5-0.2-0.7,0s-0.2,0.5-0.1,0.7l2.6,3.7c0.9,1.6,1.7,3.2,2.3,4.9c0.2,0.5,0.7,0.7,1.2,0.5c0.1,0,0.1-0.1,0.2-0.1
		c1.1-1,2.5-1.6,3.9-1.8h0.5c1.5,0.2,2.8,0.8,3.9,1.8c0.4,0.3,1,0.2,1.3-0.2c0-0.1,0.1-0.1,0.1-0.2c0.6-1.7,1.4-3.4,2.3-4.9l2.6-3.7
		c0.2-0.2,0.1-0.5-0.1-0.7C42.3,44,42,44,41.8,44.2z"/>
	<path class="st0" d="M11.4,16.6l3.9,7.9c2.6-1.7,4-4.8,3.6-7.8l-2-0.9c-0.1,0-0.2-0.1-0.2-0.1c-1.6-1.4-2.9-3.1-3.7-5l-1.5-3.6
		C11,5.6,9.7,4.5,8.2,4.2l1.1,6.3C9.7,12.6,10.4,14.7,11.4,16.6z"/>
	<path class="st0" d="M55.8,4.2c-1.5,0.4-2.7,1.5-3.3,2.9L51,10.6c-0.8,1.9-2.1,3.7-3.7,5c-0.1,0.1-0.2,0.1-0.2,0.1l-2,0.9
		c-0.3,3.1,1.1,6.1,3.6,7.8l3.9-7.9c1-2,1.7-4,2-6.2L55.8,4.2z"/>
	<path class="st0" d="M15.9,26.6c0,0.4,0,0.8,0.1,1.3V28v7.7l3.8,4.7l-1.6,1.2L16,38.8v5.9l8.4,13.7c0.7,1,1.9,1.6,3.1,1.6
		c0.8,0,1.5-0.2,2.2-0.7c1.4-0.9,3.2-0.9,4.7,0c0.6,0.4,1.4,0.6,2.1,0.6c1.3,0,2.4-0.6,3.2-1.6L48,44.7v-5.9l-2.2,2.8l-1.6-1.2
		l3.8-4.7V28v-0.1c0-0.4,0.1-0.8,0.1-1.3l-1.2-0.7C41.4,22.6,37,17.8,34.3,12c-0.1,0-0.3,0-0.4,0h-3.8c-0.1,0-0.3,0-0.4,0
		c-2.7,5.8-7.1,10.6-12.6,13.9L15.9,26.6z M44.2,46l-2.6,3.7c-0.8,1.4-1.5,3-2.1,4.5C39.1,55.3,38,56,36.8,56
		c-0.7,0-1.3-0.2-1.8-0.6c-0.8-0.7-1.7-1.2-2.7-1.4h-0.5c-1,0.2-2,0.7-2.7,1.4C28.6,55.8,28,56,27.3,56c-1.2,0-2.3-0.7-2.7-1.8
		c-0.6-1.6-1.2-3.1-2.1-4.5L19.9,46c-0.7-1-0.6-2.4,0.3-3.3c1-1,2.6-1,3.6,0l0.1,0.1l1.7,2.2l6.4,1l6.5-0.9l1.8-2.3
		c1-1,2.6-1.1,3.6-0.1C44.8,43.6,45,45,44.2,46z M33,26h2v2c0,0.7,0.4,1.4,1.1,1.8l0,0C36.4,30,36.7,30,37,30h4.1c0.2,0,0.5,0,0.7,0
		s0.3-0.1,0.5-0.1h0.1c0.4-0.1,0.8-0.3,1.2-0.5l0,0c0.1-0.1,0.2-0.1,0.3-0.2l1.4-1l1.1,1.7l-1.1,0.7c0.7,1.5,0.7,3.2,0.1,4.7
		c-0.1,0.3-0.3,0.5-0.6,0.5l-6.7,2.6c-0.1,0-0.2,0.1-0.4,0.1c-0.1,0-0.3,0-0.4-0.1c-2.1-1-3.4-3.1-3.4-5.4c0-0.7,0.1-1.4,0.4-2
		c-0.9-0.8-1.4-1.8-1.4-3v-2H33z M33.4,42l0.5-0.9c0.3-0.5,0.7-0.9,1.2-1.2c1.3-0.7,2.9-0.1,3.6,1.2l0,0l0.2,0.5l-1.8,0.9L36.9,42
		c-0.2-0.3-0.6-0.5-0.9-0.3c-0.1,0.1-0.2,0.2-0.3,0.3l-0.8,1.5C34.7,43.8,34.4,44,34,44h-4c-0.4,0-0.7-0.2-0.9-0.6l-0.8-1.5
		c-0.1-0.1-0.2-0.2-0.3-0.3c-0.3-0.2-0.7,0-0.9,0.3l-0.2,0.5l-1.8-0.9l0.2-0.5c0.7-1.3,2.3-1.9,3.6-1.2l0,0c0.5,0.3,0.9,0.7,1.2,1.2
		l0.5,0.9H31v-7h2v7L33.4,42L33.4,42z M18.6,28.2l1.4,1c0.1,0.1,0.2,0.1,0.3,0.2l0,0c0.4,0.2,0.8,0.4,1.2,0.5h0.1
		c0.2,0,0.3,0.1,0.5,0.1s0.5,0,0.7,0H27c0.3,0,0.6-0.1,0.9-0.2l0,0c0.7-0.3,1.1-1,1.1-1.8v-2h2v2c0,1.1-0.5,2.2-1.4,3
		c0.2,0.6,0.4,1.3,0.4,2c0,2.3-1.4,4.4-3.4,5.4c-0.1,0.1-0.3,0.1-0.4,0.1s-0.2,0-0.4-0.1L19,35.9c-0.3-0.1-0.5-0.3-0.6-0.5
		c-0.6-1.5-0.6-3.2,0.1-4.7L17.4,30L18.6,28.2z"/>
	<path class="st0" d="M50.7,27.3c-0.5,0.3-0.7,0.9-0.7,1.4v12.6c0,0.4,0.3,0.6,0.7,0.6c0.3,0,0.6-0.2,0.6-0.5l2.2-12.3
		c0.2-0.9-0.3-1.8-1.2-2.1C51.8,26.9,51.2,27,50.7,27.3z"/>
	<path class="st0" d="M43.2,15.5c-1.9-1.6-4.1-2.8-6.6-3.2c1.7,3.4,4.1,6.3,7,8.8c-0.6-1.7-0.8-3.5-0.5-5.3
		C43.2,15.7,43.2,15.6,43.2,15.5z"/>
	<path class="st0" d="M37.9,36.4l5.9-2.3c0.3-0.9,0.2-1.8-0.1-2.6h-0.1c-0.2,0.1-0.5,0.2-0.7,0.2c-0.2,0.1-0.4,0.1-0.6,0.1
		c-0.1,0-0.2,0-0.3,0s-0.2,0-0.3,0c0.2,0.3,0.3,0.7,0.3,1c0,1.1-0.9,2-2,2s-2-0.9-2-2c0-0.4,0.1-0.7,0.3-1H37c-0.3,0-0.6,0-0.8-0.1
		C36.1,32.3,36,32.6,36,33C36,34.4,36.7,35.7,37.9,36.4z"/>
</g>
</svg>
